<svg width="297" height="34" viewBox="0 0 297 34" fill="none" xmlns="http://www.w3.org/2000/svg">
<path d="M75.7849 6.80865C73.3593 7.56167 70.3529 10.6422 69.6354 13.1066C68.9522 15.4341 68.9522 19.3019 69.6354 21.6294C70.2845 23.82 72.266 26.1133 74.4867 27.2086C77.4931 28.6804 85.3507 28.1328 86.8539 26.3187C87.1272 25.9422 87.0247 25.3603 86.3756 23.9227C85.8973 22.8616 85.4874 22.0059 85.4191 22.0059C85.3507 22.0059 84.565 22.3825 83.6425 22.8616C80.4312 24.5046 76.6048 23.6489 75.2724 21.0133C74.4867 19.4731 74.2817 15.9133 74.9308 14.2362C75.3749 13.0039 76.8781 11.4295 77.9714 10.9845C79.4062 10.4368 82.0027 10.608 83.4717 11.361C84.2233 11.7717 84.8724 12.0798 84.9408 12.0798C85.0091 12.0798 85.5557 11.2241 86.1707 10.163C87.1956 8.34892 87.1956 8.21201 86.6148 7.76704C84.6333 6.261 79.1329 5.78181 75.7849 6.80865Z" fill="black"/>
<path d="M94.37 6.98071C92.3885 7.87064 90.7828 9.44514 89.6554 11.5673C88.8013 13.1076 88.733 13.621 88.733 17.0438C88.733 20.2612 88.8355 21.0827 89.5529 22.5888C91.2953 26.4908 94.9166 28.4418 99.7337 28.0653C104.038 27.723 107.318 25.1559 108.411 21.2196C109.095 18.8237 108.924 14.2713 108.07 12.0123C107.181 9.68474 104.756 7.28876 102.638 6.67265C100.451 6.02232 96.1465 6.15923 94.37 6.98071ZM100.724 10.917C102.535 11.8069 103.355 13.6894 103.389 17.0438C103.389 19.3371 103.253 20.0216 102.569 21.2881C101.613 22.9653 100.417 23.7183 98.6405 23.7183C95.5657 23.7183 94.0625 21.5619 94.0284 17.1807C94.0284 14.0317 94.9166 11.978 96.7615 11.0196C98.2305 10.2324 99.2213 10.1982 100.724 10.917Z" fill="black"/>
<path d="M117.02 7.08344C115.585 7.90491 115.551 7.90491 115.21 7.25458C114.902 6.74115 114.492 6.60424 112.989 6.60424H111.11V27.8257H116.235L116.303 20.0559L116.405 12.2861L117.567 11.4989C119.173 10.4036 121.12 10.4378 122.213 11.5673L123.067 12.3888V27.8257H128.534V20.1928C128.534 16.017 128.67 12.423 128.807 12.2177C129.798 10.7801 132.496 10.2667 133.897 11.225C135.093 12.0807 135.366 13.8606 135.366 21.0485V27.8257H140.491V12.4915L141.55 11.6016C143.019 10.3693 145.171 10.3693 146.333 11.6016C147.153 12.4573 147.153 12.5599 147.255 20.1586L147.358 27.8257H152.482L152.277 10.472L151.321 9.03444C150.022 7.08344 148.212 6.26196 145.103 6.26196C143.292 6.26196 142.301 6.46733 140.935 7.08344L139.193 7.90491L137.553 7.08344C135.23 5.91968 131.062 5.91968 128.738 7.08344L127.099 7.90491L125.664 7.18612C124.605 6.60424 123.546 6.39887 121.359 6.33042C118.797 6.26196 118.284 6.33042 117.02 7.08344Z" fill="black"/>
<path d="M160.989 6.70674C160.34 6.91211 158.939 7.93896 157.846 9.00003C155.557 11.2933 154.839 13.2443 154.839 17.2148C154.839 21.0483 155.557 23.0678 157.675 25.2584C159.042 26.6618 159.896 27.2094 161.296 27.6201C165.533 28.8524 169.427 28.0309 172.126 25.2926C174.279 23.1705 174.996 21.0826 174.996 17.0436C174.996 13.5181 174.313 11.2591 172.707 9.37654C170.794 7.11748 168.642 6.26178 165.089 6.296C163.483 6.33023 161.638 6.50137 160.989 6.70674ZM167.89 11.6356C169.086 12.7994 169.632 14.4765 169.632 17.0436C169.632 19.7819 169.052 21.3906 167.617 22.6913C165.43 24.6081 162.185 23.8893 160.955 21.2195C159.998 19.0973 160.067 15.0926 161.091 13.1074C162.492 10.3007 165.772 9.61614 167.89 11.6356Z" fill="black"/>
<path d="M183.435 7.11765C181.863 7.93913 181.829 7.93913 181.487 7.28879C181.18 6.74114 180.77 6.60423 179.267 6.60423H177.388V27.8257H182.512L182.581 20.0559L182.683 12.2861L183.845 11.4989C185.109 10.6432 187.364 10.4378 188.764 11.0881C190.404 11.8411 190.541 12.423 190.643 20.364L190.746 27.8257H195.836V19.8505C195.836 12.868 195.734 11.7385 195.187 10.5405C193.82 7.59685 191.429 6.26195 187.534 6.26195C185.519 6.26195 184.699 6.43309 183.435 7.11765Z" fill="black"/>
<path d="M201.302 7.04896C199.287 8.11004 198.501 9.2738 198.296 11.4986C198.023 14.7161 199.423 16.4617 203.967 18.6523C207.008 20.1241 207.998 21.151 207.657 22.4859C207.247 24.1288 204.343 24.3684 201.576 22.9993C200.858 22.6228 200.209 22.349 200.107 22.349C200.004 22.349 199.526 23.2389 199.047 24.3C198.228 26.1825 198.228 26.2852 198.808 26.7302C200.585 28.0308 205.299 28.5443 208.374 27.757C210.731 27.1751 212.781 25.053 213.089 22.9308C213.635 19.3026 211.756 16.6671 207.486 14.9899C204.821 13.9288 203.694 13.0731 203.694 12.0805C203.694 10.3349 206.393 9.82145 209.092 11.0537L210.526 11.704L211.073 10.4376C212.201 7.6993 212.166 7.4597 210.185 6.8436C207.452 5.95366 203.147 6.05635 201.302 7.04896Z" fill="black"/>
<path d="M221.254 6.91221C219.238 7.83637 217.12 9.89006 216.061 11.8753C214.9 14.2028 214.626 18.584 215.48 21.4934C216.266 24.2659 218.863 26.8672 221.664 27.6887C224.5 28.5102 228.907 28.2363 231.503 27.0384L233.451 26.1484L231.332 21.9726L230.137 22.6914C228.394 23.7867 225.388 23.9921 223.441 23.1021C221.801 22.3833 220.981 21.4592 220.605 19.8505L220.366 18.9263H227.711C233.246 18.9263 235.159 18.8236 235.364 18.4813C235.5 18.276 235.603 16.9753 235.603 15.6746C235.535 11.6357 233.963 8.9659 230.581 7.28872C228.77 6.39878 228.189 6.26187 225.593 6.26187C223.475 6.26187 222.279 6.46724 221.254 6.91221ZM228.804 11.8068C229.453 12.4229 230.068 13.3471 230.205 13.8605L230.41 14.8189H225.593C222.45 14.8189 220.776 14.682 220.776 14.4766C220.776 13.7578 221.801 12.1149 222.689 11.4303C223.372 10.8827 224.09 10.7115 225.593 10.7115C227.404 10.7115 227.745 10.8142 228.804 11.8068Z" fill="black"/>
<path d="M244.519 6.77538C243.973 7.08344 243.255 7.56263 242.948 7.83646C242.435 8.28142 242.367 8.24719 242.162 7.45995C241.957 6.6727 241.82 6.60424 239.907 6.60424H237.857V27.8257H242.982V12.4573L244.246 11.5673C245.203 10.9512 245.988 10.7116 247.184 10.7116C250.84 10.7116 251.181 11.5673 251.181 20.8089V27.8257H256.716L256.579 20.0217C256.477 12.2861 256.477 12.2519 255.52 10.2667C254.051 7.28881 252.616 6.46733 248.653 6.33042C246.296 6.26196 245.305 6.36464 244.519 6.77538Z" fill="black"/>
<path d="M261.772 7.04887C259.756 8.10995 258.971 9.27371 258.766 11.4985C258.492 14.716 259.893 16.4616 264.437 18.6522C267.443 20.0898 268.468 21.1509 268.126 22.4858C267.716 24.1288 264.813 24.3684 262.045 22.9992C261.328 22.6227 260.679 22.3489 260.576 22.3489C260.474 22.3489 259.996 23.2388 259.517 24.2999C258.697 26.1825 258.697 26.2851 259.278 26.7301C261.157 28.0992 266.111 28.5784 269.151 27.6543C272.978 26.5247 274.72 22.6912 273.08 19.063C272.294 17.3173 270.757 16.1194 267.887 14.9556C264.505 13.5865 263.412 12.2173 264.71 10.9167C265.428 10.1636 267.751 10.2321 269.561 11.0536L271.03 11.7381L271.543 10.5059C271.816 9.85559 272.124 8.86297 272.226 8.34955C272.397 7.45961 272.329 7.39116 270.655 6.8435C267.921 5.95357 263.617 6.05626 261.772 7.04887Z" fill="black"/>
<path d="M281.689 6.91207C279.571 7.90469 277.316 10.1295 276.428 12.1832C275.403 14.5792 275.164 18.7892 275.916 21.3906C276.565 23.6839 278.615 26.1141 280.767 27.1409C283.807 28.647 290.367 28.3389 293.032 26.5933L293.852 26.0456L292.827 24.0262L291.802 21.9725L290.64 22.6913C289.991 23.102 288.625 23.5127 287.565 23.6154C284.286 23.9577 281.723 22.4517 281.074 19.8503L280.835 18.9262H295.867L296.072 17.1121C296.653 12.4228 294.091 8.14429 289.82 6.67248C287.941 6.02214 283.363 6.15905 281.689 6.91207ZM288.795 11.2933C289.718 11.8409 290.811 13.5523 290.811 14.4423C290.811 14.6819 289.274 14.8188 286.028 14.8188C282.919 14.8188 281.245 14.6819 281.245 14.4765C281.245 13.7577 282.27 12.1148 283.158 11.4302C284.32 10.506 287.36 10.4376 288.795 11.2933Z" fill="black"/>
<path d="M16.6342 7.48309e-06C13.3442 7.44386e-06 10.1282 0.975583 7.39272 2.80337C4.65725 4.63115 2.52521 7.22905 1.26621 10.2685C0.00720727 13.308 -0.322204 16.6526 0.319628 19.8793C0.96146 23.106 2.54571 26.0699 4.87204 28.3963C7.19836 30.7226 10.1623 32.3069 13.389 32.9487C16.6157 33.5905 19.9603 33.2611 22.9998 32.0021C26.0393 30.7431 28.6372 28.6111 30.4649 25.8756C32.2927 23.1401 33.2683 19.9241 33.2683 16.6342H24.913C24.913 18.2716 24.4275 19.8722 23.5178 21.2336C22.6081 22.5951 21.3151 23.6562 19.8023 24.2828C18.2896 24.9094 16.625 25.0734 15.019 24.7539C13.4131 24.4345 11.9379 23.646 10.7801 22.4882C9.62231 21.3304 8.83382 19.8552 8.51438 18.2493C8.19494 16.6433 8.35889 14.9787 8.9855 13.466C9.6121 11.9532 10.6732 10.6602 12.0347 9.75054C13.3961 8.84085 14.9968 8.35531 16.6342 8.35531V7.48309e-06Z" fill="black"/>
<path d="M33.114 33.2683C36.4039 33.2683 39.6199 32.2927 42.3554 30.4649C45.0909 28.6372 47.2229 26.0393 48.4819 22.9998C49.7409 19.9603 50.0703 16.6157 49.4285 13.389C48.7867 10.1623 47.2024 7.19837 44.8761 4.87204C42.5498 2.54571 39.5859 0.961461 36.3591 0.319628C33.1324 -0.322204 29.7879 0.00720692 26.7484 1.26621C23.7089 2.5252 21.111 4.65724 19.2832 7.39272C17.4554 10.1282 16.4798 13.3442 16.4798 16.6342H24.8351C24.8351 14.9968 25.3207 13.3961 26.2304 12.0347C27.1401 10.6732 28.433 9.6121 29.9458 8.9855C31.4586 8.35889 33.1232 8.19494 34.7291 8.51438C36.335 8.83383 37.8102 9.62231 38.968 10.7801C40.1258 11.9379 40.9143 13.4131 41.2338 15.019C41.5532 16.625 41.3892 18.2896 40.7626 19.8023C40.136 21.3151 39.0749 22.6081 37.7135 23.5178C36.352 24.4275 34.7514 24.913 33.114 24.913V33.2683Z" fill="black"/>
</svg>
