<svg width="56" height="56" viewBox="0 0 56 56" fill="none" xmlns="http://www.w3.org/2000/svg">
<path d="M19.6342 12C16.3442 12 13.1282 12.9756 10.3927 14.8034C7.65725 16.6312 5.52521 19.229 4.26621 22.2685C3.00721 25.308 2.6778 28.6526 3.31963 31.8793C3.96146 35.106 5.54571 38.0699 7.87204 40.3963C10.1984 42.7226 13.1623 44.3069 16.389 44.9487C19.6157 45.5905 22.9603 45.2611 25.9998 44.0021C29.0393 42.7431 31.6372 40.6111 33.4649 37.8756C35.2927 35.1401 36.2683 31.9241 36.2683 28.6342H27.913C27.913 30.2716 27.4275 31.8722 26.5178 33.2336C25.6081 34.5951 24.3151 35.6562 22.8023 36.2828C21.2896 36.9094 19.625 37.0734 18.019 36.7539C16.4131 36.4345 14.9379 35.646 13.7801 34.4882C12.6223 33.3304 11.8338 31.8552 11.5144 30.2493C11.1949 28.6433 11.3589 26.9787 11.9855 25.466C12.6121 23.9532 13.6732 22.6602 15.0347 21.7505C16.3961 20.8409 17.9968 20.3553 19.6342 20.3553V12Z" fill="#1D1D1B"/>
<path d="M36.114 45.2683C39.4039 45.2683 42.6199 44.2927 45.3554 42.4649C48.0909 40.6372 50.2229 38.0393 51.4819 34.9998C52.7409 31.9603 53.0703 28.6157 52.4285 25.389C51.7867 22.1623 50.2024 19.1984 47.8761 16.872C45.5498 14.5457 42.5859 12.9615 39.3591 12.3196C36.1324 11.6778 32.7879 12.0072 29.7484 13.2662C26.7089 14.5252 24.111 16.6572 22.2832 19.3927C20.4554 22.1282 19.4798 25.3442 19.4798 28.6342H27.8351C27.8351 26.9968 28.3207 25.3961 29.2304 24.0347C30.1401 22.6732 31.433 21.6121 32.9458 20.9855C34.4586 20.3589 36.1232 20.1949 37.7291 20.5144C39.335 20.8338 40.8102 21.6223 41.968 22.7801C43.1258 23.9379 43.9143 25.4131 44.2338 27.019C44.5532 28.625 44.3892 30.2896 43.7626 31.8023C43.136 33.3151 42.0749 34.6081 40.7135 35.5178C39.352 36.4275 37.7514 36.913 36.114 36.913V45.2683Z" fill="#1D1D1B"/>
</svg>
